<svg id="Capa_1" data-name="Capa 1" xmlns="http://www.w3.org/2000/svg" viewBox="0 0 100 100.06"><defs><style>.cls-1{fill:#a0a0a0;}</style></defs><title>INCIO_ROSTRO</title><path class="cls-1" d="M69,33v8a3.16,3.16,0,0,0,3.17,3.17,3.22,3.22,0,0,0,3.17-3.06V33a3.09,3.09,0,0,0-3.17-3.17A3.16,3.16,0,0,0,69,33Z"/><path class="cls-1" d="M69.81,66.11a2.39,2.39,0,0,0-3.51,0,21.39,21.39,0,0,1-15,6.33h-.91a21.16,21.16,0,0,1-15.05-6.33,2.48,2.48,0,1,0-3.51,3.5,26,26,0,0,0,18.56,7.81h.91a25.84,25.84,0,0,0,18.56-7.81A2.4,2.4,0,0,0,69.81,66.11Z"/><path class="cls-1" d="M42.08,56.71a2.51,2.51,0,0,0,2.49,2.49h.56a9.1,9.1,0,0,0,9.17-9.05V33a2.49,2.49,0,1,0-5,0V50a4.18,4.18,0,0,1-4.19,4.19h-.56A2.51,2.51,0,0,0,42.08,56.71Z"/><path class="cls-1" d="M24.65,33v8a3.16,3.16,0,0,0,3.17,3.17A3.07,3.07,0,0,0,31,41.09V33a3.17,3.17,0,1,0-6.34,0Z"/><path class="cls-1" d="M57.06,5.35A45,45,0,0,1,94.68,43a2.66,2.66,0,0,0,2.63,2.25,3,3,0,0,0,.42,0,2.67,2.67,0,0,0,2.22-3A50.33,50.33,0,0,0,57.88.08a2.67,2.67,0,0,0-.82,5.27Z"/><path class="cls-1" d="M2.27,45.19a3,3,0,0,0,.42,0A2.66,2.66,0,0,0,5.32,43,45,45,0,0,1,43,5.35,2.67,2.67,0,0,0,42.13.08,50.33,50.33,0,0,0,.05,42.15,2.67,2.67,0,0,0,2.27,45.19Z"/><path class="cls-1" d="M42.94,94.71A45,45,0,0,1,5.32,57.09a2.67,2.67,0,0,0-5.27.82A50.33,50.33,0,0,0,42.12,100l.41,0a2.67,2.67,0,0,0,.41-5.3Z"/><path class="cls-1" d="M97.73,54.87a2.67,2.67,0,0,0-3,2.22A45,45,0,0,1,57.06,94.71a2.67,2.67,0,0,0,.41,5.3l.41,0A50.33,50.33,0,0,0,100,57.91,2.67,2.67,0,0,0,97.73,54.87Z"/></svg>