<svg id="Capa_1" data-name="Capa 1" xmlns="http://www.w3.org/2000/svg" viewBox="0 0 100 100.06"><defs><style>.cls-1{fill:#a0a0a0;}</style></defs><title>INICIO_HUELLA</title><path class="cls-1" d="M76.91,60.84c-.07,3.41-.32,6.79-.68,10.15-.11,1-.34,2-.48,3a1.52,1.52,0,0,1-1.84,1.14,1.65,1.65,0,0,1-1.14-1.8,74.39,74.39,0,0,0,1-9.18,68.58,68.58,0,0,0-.18-9.29c-.4-4.36-.79-8.75-2.35-12.9a22,22,0,0,0-7.58-10,22.69,22.69,0,0,0-22.81-2.64,21.87,21.87,0,0,0-7.59,5.47A22.8,22.8,0,0,0,27.33,48.2,26,26,0,0,0,27.82,55a27.13,27.13,0,0,1,.34,9.12,1.44,1.44,0,0,1-1.63,1.4,1.42,1.42,0,0,1-1.33-1.69,28,28,0,0,0-.3-7.76,29.75,29.75,0,0,1-.71-6.23,25.87,25.87,0,0,1,9.52-19.81,25.73,25.73,0,0,1,29.68-2,25.68,25.68,0,0,1,6.06,5.13,26.33,26.33,0,0,1,6.12,13.38A97,97,0,0,1,76.91,60.84Z"/><path class="cls-1" d="M29,22.31a34.89,34.89,0,0,0-4,3.52,33.22,33.22,0,0,0-6.54,9.43,35.61,35.61,0,0,0-2.73,8.66,1.55,1.55,0,0,1-1.39,1.43,1.6,1.6,0,0,1-1.54-.91,1.71,1.71,0,0,1-.09-1.09,37.83,37.83,0,0,1,52.61-28,39.91,39.91,0,0,1,8.15,4.9A37.55,37.55,0,0,1,87,41.88c.39,1.73.7,3.48,1,5.24a1.56,1.56,0,0,1-1.2,1.93,1.53,1.53,0,0,1-1.81-1.45,60.82,60.82,0,0,0-1.25-6.43,34.25,34.25,0,0,0-7-13.54,36.16,36.16,0,0,0-5.34-5.08A34.37,34.37,0,0,0,60,16.67a33.32,33.32,0,0,0-12.1-1.42A35.2,35.2,0,0,0,29,22.31Z"/><path class="cls-1" d="M49.93,6.11a41.26,41.26,0,0,1,5.46.27,4,4,0,0,1,.58.11,1.51,1.51,0,0,1,1.17,1.83A1.45,1.45,0,0,1,55.46,9.5a38.46,38.46,0,0,0-7.58-.3,41.24,41.24,0,0,0-15,3.67A40.34,40.34,0,0,0,23,19.29a42,42,0,0,0-4.06,4.16A39.74,39.74,0,0,0,15,29a40.31,40.31,0,0,0-5.3,14.27,39,39,0,0,0,.14,14.2,14.87,14.87,0,0,1-.12,7.05,13.26,13.26,0,0,1-3.14,5.66,1.52,1.52,0,0,1-2.18.07,1.48,1.48,0,0,1-.06-2.13,11.53,11.53,0,0,0,2.28-3.86,10.42,10.42,0,0,0,.33-5.56,43.35,43.35,0,0,1,.32-18.83,43.91,43.91,0,0,1,6.43-14.52A45.37,45.37,0,0,1,17.86,20,42.41,42.41,0,0,1,25,13.86,43.52,43.52,0,0,1,40,7.2,37.94,37.94,0,0,1,49.93,6.11Z"/><path class="cls-1" d="M58.62,57.45A62.65,62.65,0,0,1,57.4,73.33,61.67,61.67,0,0,1,52,88.87a64.6,64.6,0,0,1-6.31,10,1.68,1.68,0,0,1-1.67.81,1.49,1.49,0,0,1-.9-2.44C44,96,45,94.69,45.87,93.36c1.21-1.84,2.27-3.77,3.29-5.72a56.69,56.69,0,0,0,4.46-11.58,59.62,59.62,0,0,0,1.73-9.66A54.52,54.52,0,0,0,55.6,59,55.66,55.66,0,0,0,54.37,48.9a4.52,4.52,0,0,0-8.83,1.92,51.28,51.28,0,0,1,.93,13,42.93,42.93,0,0,1-1,7.39,1.52,1.52,0,0,1-3,.12,1.34,1.34,0,0,1,0-.77,46.09,46.09,0,0,0,1-7.58,44.49,44.49,0,0,0-.93-11.51,7.62,7.62,0,1,1,15-2.54c.21,1.27.46,2.53.62,3.81C58.34,54.32,58.46,55.88,58.62,57.45Z"/><path class="cls-1" d="M95,60.91a87.07,87.07,0,0,1-.67,11.75,1.67,1.67,0,0,1-1.1,1.63,1.44,1.44,0,0,1-1.55-.41,1.58,1.58,0,0,1-.4-1.34c.15-1.65.32-3.3.45-5A89.42,89.42,0,0,0,91.89,57c-.08-2.15-.22-4.31-.48-6.45-.71-6-1.64-11.86-4.18-17.36a39.92,39.92,0,0,0-4.86-8,18.42,18.42,0,0,0-2.14-2.43c-1.08-1-2-2.09-3-3.08a27.8,27.8,0,0,0-3-2.46c-1.24-.9-2.5-1.74-3.81-2.53a37.88,37.88,0,0,0-7-3.22c-.38-.13-.75-.25-1.11-.41a1.47,1.47,0,0,1-.78-2,1.51,1.51,0,0,1,1.88-.88,47,47,0,0,1,8.25,3.64A44.19,44.19,0,0,1,82,20a45.13,45.13,0,0,1,6.41,8.81A43.74,43.74,0,0,1,92.26,38a61.2,61.2,0,0,1,1.68,8.27c.41,2.68.67,5.37.88,8.07A60.66,60.66,0,0,1,95,60.91Z"/><path class="cls-1" d="M49.86,33.43a15.83,15.83,0,0,0-10.47,3.76,16.57,16.57,0,0,0-6,11.51,22.76,22.76,0,0,0,.58,6.17,37.73,37.73,0,0,1-.85,16A27.18,27.18,0,0,1,32,74.48a41.86,41.86,0,0,1-4.17,7.81,41.83,41.83,0,0,1-6,6.82,5.63,5.63,0,0,1-.45.38,1.46,1.46,0,0,1-2.11,0,1.55,1.55,0,0,1,.15-2.28,31,31,0,0,0,4.17-4.33,32.07,32.07,0,0,0,3-4.26,37.59,37.59,0,0,0,3.66-8.7,36.27,36.27,0,0,0,1.12-11.27c-.13-2.11-.62-4.14-.88-6.22a19.82,19.82,0,0,1,6.25-16.91,19.53,19.53,0,0,1,9.91-4.87,21.61,21.61,0,0,1,4.82-.26,1.58,1.58,0,0,1,1.54,1.56,1.55,1.55,0,0,1-1.63,1.52Z"/><path class="cls-1" d="M68.85,77.9a66.49,66.49,0,0,1-3,9.52A79.9,79.9,0,0,1,60.76,98.1c-.72,1.26-2.08,1.44-2.77.35a1.46,1.46,0,0,1,0-1.67,70.16,70.16,0,0,0,5.34-11.29,73.28,73.28,0,0,0,3.84-15.81,73.81,73.81,0,0,0,.47-12.16,60,60,0,0,0-1.59-11.86,16,16,0,0,0-3.82-6.92,16.67,16.67,0,0,0-3.92-3.13c-1-.59-1.26-1.44-.79-2.24s1.38-1,2.39-.38a19.87,19.87,0,0,1,9.63,14.28,78,78,0,0,1,1.2,15.25A75.42,75.42,0,0,1,68.85,77.9Z"/><path class="cls-1" d="M47.92.05a49,49,0,0,1,23.9,5,1.51,1.51,0,0,1,.48,2.61,1.62,1.62,0,0,1-1.81.14c-1-.5-2-1-3.11-1.39A46.67,46.67,0,0,0,36.73,5a45,45,0,0,0-11,4.87,47.26,47.26,0,0,0-7.46,5.61,45.18,45.18,0,0,0-4.57,4.91c-.51.63-1,1.24-1.52,1.88a1.55,1.55,0,0,1-2.15.42,1.45,1.45,0,0,1-.35-2.13,39.44,39.44,0,0,1,3.85-4.7A50,50,0,0,1,42.77.54,46.73,46.73,0,0,1,47.92.05Z"/><path class="cls-1" d="M82.05,48.74c-.7-5.24-1.86-10.35-4.67-14.94-.3-.49-.59-1-.9-1.45A1.19,1.19,0,0,0,74.81,32l-.62.43a1.19,1.19,0,0,0-.29,1.67h0a24,24,0,0,1,3.86,8.47,76,76,0,0,1,2.08,16.79,82.81,82.81,0,0,1-.8,13,74.79,74.79,0,0,1-1.36,7.41,86.47,86.47,0,0,1-3.07,10.15,6.28,6.28,0,0,0-.27.87,1.45,1.45,0,0,0,1,1.72,1.52,1.52,0,0,0,1.9-.84c.76-1.91,1.39-3.86,2-5.82A86.44,86.44,0,0,0,82.92,61.6,86.57,86.57,0,0,0,82.05,48.74Z"/><path class="cls-1" d="M27.8,27.18c.26-.26.51-.52.77-.77.46-.46,1-1.26,1.68-1.43a1.8,1.8,0,0,1,1.9.69,1.55,1.55,0,0,1-.5,2.18A28.3,28.3,0,0,0,25,35.71,29.17,29.17,0,0,0,21.21,51.5,53.39,53.39,0,0,0,22,57.13a25.17,25.17,0,0,1-2.34,15,24.77,24.77,0,0,1-7,8.71,1.47,1.47,0,0,1-2.2-.13,1.55,1.55,0,0,1,.37-2.28,23.39,23.39,0,0,0,5.84-7.23,22.56,22.56,0,0,0,2.51-10.07,24,24,0,0,0-.53-5.2,30.86,30.86,0,0,1,.92-15.58A31.81,31.81,0,0,1,23.84,32a38.92,38.92,0,0,1,3-3.76Z"/><path class="cls-1" d="M52.64,60.25A56.59,56.59,0,0,1,46.27,86.8,55.13,55.13,0,0,1,38.8,97.68a1.57,1.57,0,0,1-1.58.71,1.5,1.5,0,0,1-.8-2.58,62.07,62.07,0,0,0,4.36-5.72A53.3,53.3,0,0,0,46.5,78.7a53,53,0,0,0,3-14.9,53.27,53.27,0,0,0-1-13.28,1.54,1.54,0,0,1,1.11-1.93,1.48,1.48,0,0,1,1.85,1.22,46.61,46.61,0,0,1,.89,5.88C52.52,57.48,52.59,59.27,52.64,60.25Z"/><path class="cls-1" d="M100,49.12v1.77a1.53,1.53,0,0,1-1.49,1.66,1.61,1.61,0,0,1-1.58-1.61c0-.89,0-1.79,0-2.68A45.7,45.7,0,0,0,95.3,37.87a45.64,45.64,0,0,0-3.58-9.33A45,45,0,0,0,83.4,17.1a48.09,48.09,0,0,0-6-5.19,5.32,5.32,0,0,1-.46-.37,1.49,1.49,0,0,1-.31-2,1.44,1.44,0,0,1,2.08-.39c.87.58,1.71,1.21,2.53,1.86A50.19,50.19,0,0,1,93.48,25.31a49.29,49.29,0,0,1,4.26,9.9A52.39,52.39,0,0,1,99.94,47c0,.72,0,1.44,0,2.16Z"/><path class="cls-1" d="M50.84,36.36a13.37,13.37,0,0,1,10.72,6.4,14.75,14.75,0,0,1,2,5.68,70.73,70.73,0,0,1,1.12,12,1.57,1.57,0,0,1-.83,1.63,1.48,1.48,0,0,1-2.13-.94,3,3,0,0,1-.1-.84A61.35,61.35,0,0,0,60.3,47.6a10.62,10.62,0,0,0-19.48-2.91,9,9,0,0,0-1.19,3,1.53,1.53,0,1,1-3-.59,13.27,13.27,0,0,1,5.53-8.3A14.27,14.27,0,0,1,50.84,36.36Z"/><path class="cls-1" d="M40.48,60.34a44.3,44.3,0,0,1-3,16.62,44.21,44.21,0,0,1-6.65,11.45,43.57,43.57,0,0,1-4.07,4.41,1.51,1.51,0,0,1-2.57-.27,1.62,1.62,0,0,1,.46-2A40.11,40.11,0,0,0,30.9,83a40.76,40.76,0,0,0,6.2-17,42.49,42.49,0,0,0,0-10.45,1.48,1.48,0,0,1,1.29-1.85,1.53,1.53,0,0,1,1.71,1.47A31.62,31.62,0,0,1,40.48,60.34Z"/><path class="cls-1" d="M3,63.2a1.5,1.5,0,0,1-1.51-1.29A50.77,50.77,0,0,1,.29,55.67,55,55,0,0,1,0,47.76,46.36,46.36,0,0,1,1.7,37a42.46,42.46,0,0,1,1.47-4.6,40.35,40.35,0,0,1,2.38-5.23,1.51,1.51,0,0,1,1.77-.61,1.48,1.48,0,0,1,1,1.65A3,3,0,0,1,8,29a46.12,46.12,0,0,0-3.63,32A1.56,1.56,0,0,1,3,63.2Z"/><path class="cls-1" d="M68.48,27.91a16,16,0,0,1-1.58-1.16,28.73,28.73,0,0,0-14.41-5.39,29.08,29.08,0,0,0-14.43,2.47A1.38,1.38,0,0,1,36,23.15,1.56,1.56,0,0,1,36.81,21a33.9,33.9,0,0,1,11-2.75A31.86,31.86,0,0,1,63.06,21a39.93,39.93,0,0,1,4.4,2.4A28.12,28.12,0,0,1,70,25.29a1.52,1.52,0,0,1-.3,2.73A1.18,1.18,0,0,1,68.48,27.91Z"/><path class="cls-1" d="M62.76,66.92a1.51,1.51,0,0,1,1.53,1.78A71.61,71.61,0,0,1,62,80.1a69.9,69.9,0,0,1-4.88,12.13A70.73,70.73,0,0,1,53,99.14c-.72,1.08-1.71,1.21-2.51.38a1.37,1.37,0,0,1-.16-1.85,64.94,64.94,0,0,0,5.17-9,65.37,65.37,0,0,0,3-7.54,65,65,0,0,0,2.61-11.34c.07-.52.12-1,.22-1.56A1.42,1.42,0,0,1,62.76,66.92Z"/><path class="cls-1" d="M89,60.34a94.37,94.37,0,0,1-2.88,23.22,10.41,10.41,0,0,1-.3,1.13,1.48,1.48,0,0,1-1.77,1A1.46,1.46,0,0,1,82.91,84c.09-.58.26-1.15.4-1.72a87.73,87.73,0,0,0,2.36-14.77c.22-3.12.25-6.24.21-9.36,0-.91-.1-1.83-.11-2.74a1.46,1.46,0,0,1,1.45-1.66,1.57,1.57,0,0,1,1.6,1.63C88.87,57.21,89.08,59.08,89,60.34Z"/><path class="cls-1" d="M16.23,60.86a19.47,19.47,0,0,1-3.68,11.46,19.18,19.18,0,0,1-3.14,3.47,1.53,1.53,0,0,1-2.23,0,1.57,1.57,0,0,1,.24-2.35,16.49,16.49,0,0,0,5.75-12.12,23.78,23.78,0,0,0-.6-5.32,35,35,0,0,1-.45-4.35A1.57,1.57,0,0,1,13.63,50a1.58,1.58,0,0,1,1.54,1.62,43.52,43.52,0,0,0,.8,6A16.24,16.24,0,0,1,16.23,60.86Z"/><path class="cls-1" d="M43.22,78.43a2.34,2.34,0,0,1-.24,1,52.28,52.28,0,0,1-8.74,14.31c-.55.65-1.13,1.27-1.72,1.88a1.71,1.71,0,0,1-1.78.55,1.43,1.43,0,0,1-1-1.16c-.17-.7.26-1.16.69-1.61a44.06,44.06,0,0,0,3.44-4A48.18,48.18,0,0,0,40.29,78a1.5,1.5,0,0,1,2.93.47Z"/><path class="cls-1" d="M21.72,74.72a30.51,30.51,0,0,0,1.61-3.36,1.54,1.54,0,0,1,1.47-1.09,1.62,1.62,0,0,1,1.48,1,.83.83,0,0,1,0,.62,14.22,14.22,0,0,1-1.35,3.25c-.53,1.1-1.21,2.12-1.79,3.19a18.74,18.74,0,0,1-1.63,2.18c-.57.77-1.21,1.49-1.85,2.2a35.53,35.53,0,0,1-2.76,2.59,1.66,1.66,0,0,1-2.36.07A1.66,1.66,0,0,1,14.94,83,28.37,28.37,0,0,0,21.72,74.72Z"/><path class="cls-1" d="M72.66,79.66a1.5,1.5,0,0,1,1.43,2c-.38,1.63-.89,3.24-1.43,4.83a78,78,0,0,1-3.73,9.15,2.44,2.44,0,0,1-.61.91A1.5,1.5,0,0,1,66,94.73c.67-1.56,1.41-3.1,2-4.67.73-1.8,1.42-3.61,2-5.45.31-1,.6-1.94.85-2.93S71.32,79.66,72.66,79.66Z"/><path class="cls-1" d="M29.17,22.26l.15-.13Z"/><path class="cls-1" d="M29,22.42l.12-.16Z"/></svg>