<svg id="Capa_1" data-name="Capa 1" xmlns="http://www.w3.org/2000/svg" viewBox="0 0 609.38 125.7"><defs><style>.cls-1{fill:#ff3c00;}.cls-2{fill:#646464;}</style></defs><title>LOGO</title><path class="cls-1" d="M106,17.15A62.95,62.95,0,0,0,19,17.7l-.64.63a62.78,62.78,0,0,0,0,88.78l4.76,4.76L43.42,91.61A34.82,34.82,0,0,0,87.36,87.3,34.91,34.91,0,0,0,97.53,61.73l-13.48.38A21.32,21.32,0,0,1,53.26,81.77L92.13,42.9l-4.77-4.76a34.75,34.75,0,0,0-50.09,1,34.91,34.91,0,0,0-3.37,43L23.47,92.49a49.24,49.24,0,0,1,39-79,49.25,49.25,0,0,1,35.16,84.1A48.89,48.89,0,0,1,62.08,112l-.19,13.48a62.79,62.79,0,0,0,63.67-63.66A62.35,62.35,0,0,0,106,17.15ZM47.15,48.27a21.33,21.33,0,0,1,25.15-4.6L43.74,72.22A21.36,21.36,0,0,1,47.15,48.27Z"/><path d="M203.21,86.51V97.26H151.44v-69h50.39V39H164.26v18h33.33V67.48H164.26v19Z"/><path d="M289.26,28.24v69H278.71L240.65,50.52V97.26H227.93v-69h10.55L276.54,75V28.24Z"/><path d="M332.22,39.08H309.34V28.24h58.58V39.08H345V97.26H332.22Z"/><path d="M388,28.24h12.82v69H388Z"/><path d="M443.88,39.08H421V28.24h58.57V39.08H456.7V97.26H443.88Z"/><path d="M499.66,28.24h12.82v69H499.66Z"/><path d="M541.53,28.24h30.18c22.38,0,37.67,13.8,37.67,34.51s-15.29,34.51-37.67,34.51H541.53Zm29.59,58.18c15.38,0,25.34-9.37,25.34-23.67s-10-23.67-25.34-23.67H554.35V86.42Z"/><path class="cls-2" d="M162.59,122.23h-7.06l-1.39,3.27h-2.7l6.35-14.12h2.59l6.37,14.12H164Zm-.86-2.06L159.06,114l-2.64,6.17Z"/><path class="cls-2" d="M169.33,119.35v-8H172v7.87c0,2.9,1.31,4.15,3.59,4.15s3.57-1.25,3.57-4.15v-7.87h2.58v8c0,4.11-2.32,6.35-6.17,6.35S169.33,123.46,169.33,119.35Z"/><path class="cls-2" d="M189.17,113.6h-4.68v-2.22h12v2.22h-4.68v11.9h-2.62Z"/><path class="cls-2" d="M212.2,111.38V125.5h-2.62v-6h-7.3v6h-2.62V111.38h2.62v5.83h7.3v-5.83Z"/><path class="cls-2" d="M227.79,123.3v2.2H217.2V111.38h10.31v2.2h-7.68v3.67h6.81v2.16h-6.81v3.89Z"/><path class="cls-2" d="M244.47,111.38V125.5h-2.16l-7.78-9.56v9.56h-2.6V111.38h2.15l7.79,9.56v-9.56Z"/><path class="cls-2" d="M252.33,113.6h-4.67v-2.22h12v2.22H255v11.9h-2.63Z"/><path class="cls-2" d="M262.82,111.38h2.62V125.5h-2.62Z"/><path class="cls-2" d="M269.46,118.44c0-4.22,3.22-7.26,7.56-7.26a7.14,7.14,0,0,1,5.58,2.36l-1.69,1.59a5,5,0,0,0-3.77-1.65,5,5,0,1,0,0,9.92,4.91,4.91,0,0,0,3.77-1.67l1.69,1.61a7.63,7.63,0,0,1-13.14-4.9Z"/><path class="cls-2" d="M295.19,122.23h-7.06l-1.39,3.27H284l6.35-14.12H293l6.37,14.12H296.6Zm-.87-2.06L291.66,114,289,120.17Z"/><path class="cls-2" d="M304.51,113.6h-4.68v-2.22h12v2.22h-4.68v11.9h-2.62Z"/><path class="cls-2" d="M313.78,118.44c0-4.17,3.23-7.26,7.6-7.26s7.61,3.06,7.61,7.26-3.23,7.26-7.61,7.26S313.78,122.61,313.78,118.44Zm12.57,0a5,5,0,1,0-5,5A4.82,4.82,0,0,0,326.35,118.44Z"/><path class="cls-2" d="M342.22,125.5l-2.89-4.14a4.87,4.87,0,0,1-.54,0H335.6v4.12H333V111.38h5.81c3.71,0,6,1.9,6,5a4.52,4.52,0,0,1-3,4.46L345,125.5Zm-3.55-11.9H335.6v5.63h3.07c2.3,0,3.49-1,3.49-2.83S341,113.6,338.67,113.6Z"/></svg>